<svg width="16" height="16" viewBox="0 0 16 16" fill="none" xmlns="http://www.w3.org/2000/svg">
<path d="M11.6464 15.8536C11.8417 16.0488 12.1583 16.0488 12.3536 15.8536L15.5355 12.6716C15.7308 12.4763 15.7308 12.1597 15.5355 11.9645C15.3403 11.7692 15.0237 11.7692 14.8284 11.9645L12 14.7929L9.17157 11.9645C8.97631 11.7692 8.65973 11.7692 8.46447 11.9645C8.2692 12.1597 8.2692 12.4763 8.46447 12.6716L11.6464 15.8536ZM12.5 15.5L12.5 0.999999L11.5 1L11.5 15.5L12.5 15.5Z" fill="white"/>
<path d="M4.35355 0.646446C4.15829 0.451184 3.84171 0.451184 3.64645 0.646446L0.464466 3.82843C0.269203 4.02369 0.269203 4.34027 0.464466 4.53553C0.659728 4.7308 0.97631 4.7308 1.17157 4.53553L4 1.70711L6.82843 4.53553C7.02369 4.7308 7.34027 4.7308 7.53553 4.53553C7.7308 4.34027 7.7308 4.02369 7.53553 3.82843L4.35355 0.646446ZM4.5 15.5L4.5 0.999999L3.5 1L3.5 15.5L4.5 15.5Z" fill="white"/>
</svg>
