<svg width="22" height="22" viewBox="0 0 22 22" fill="none" xmlns="http://www.w3.org/2000/svg">
<g clip-path="url(#clip0_609_176)">
<path d="M13.1772 7.9703L10.9142 10.2333L8.65115 7.9703L7.41915 9.2023L9.68219 11.4653L7.41915 13.7284L8.65115 14.9604L10.9142 12.6974L13.1772 14.9604L14.4092 13.7284L12.1462 11.4653L14.4092 9.2023L13.1772 7.9703ZM10.9142 2.72772C6.08229 2.72772 2.17657 6.63344 2.17657 11.4653C2.17657 16.2973 6.08229 20.203 10.9142 20.203C15.7461 20.203 19.6518 16.2973 19.6518 11.4653C19.6518 6.63344 15.7461 2.72772 10.9142 2.72772ZM10.9142 18.4554C7.06091 18.4554 3.9241 15.3186 3.9241 11.4653C3.9241 7.61205 7.06091 4.47525 10.9142 4.47525C14.7675 4.47525 17.9043 7.61205 17.9043 11.4653C17.9043 15.3186 14.7675 18.4554 10.9142 18.4554Z" fill="#F45D22"/>
</g>
<defs>
<clipPath id="clip0_609_176">
<rect width="20.9703" height="20.9703" fill="white" transform="translate(0.429047 0.980194)"/>
</clipPath>
</defs>
</svg>
