<svg width="20" height="19" viewBox="0 0 20 19" fill="none" xmlns="http://www.w3.org/2000/svg">
<g clip-path="url(#clip0_609_135)">
<path d="M12.8438 10.9593H12.2302L12.0127 10.7496C12.7739 9.86417 13.2321 8.71469 13.2321 7.46424C13.2321 4.67596 10.972 2.41583 8.18372 2.41583C5.39545 2.41583 3.13531 4.67596 3.13531 7.46424C3.13531 10.2525 5.39545 12.5126 8.18372 12.5126C9.43417 12.5126 10.5837 12.0544 11.4691 11.2933L11.6788 11.5107V12.1243L15.5622 15.9999L16.7194 14.8427L12.8438 10.9593V10.9593ZM8.18372 10.9593C6.24979 10.9593 4.68867 9.39816 4.68867 7.46424C4.68867 5.53031 6.24979 3.96919 8.18372 3.96919C10.1176 3.96919 11.6788 5.53031 11.6788 7.46424C11.6788 9.39816 10.1176 10.9593 8.18372 10.9593Z" fill="white"/>
</g>
<defs>
<clipPath id="clip0_609_135">
<rect width="18.6403" height="18.6403" fill="white" transform="translate(0.805283 0.0858154)"/>
</clipPath>
</defs>
</svg>
